<svg width="200" height="200" viewBox="0 0 200 200" fill="none" xmlns="http://www.w3.org/2000/svg">
  <!-- Main core -->
  <circle cx="100" cy="100" r="20" fill="#2563eb" stroke="#1d4ed8" stroke-width="3"/>
  <text x="100" y="107" text-anchor="middle" fill="white" font-family="Arial, sans-serif" font-size="12" font-weight="bold">CORE</text>
  
  <!-- Plugin modules -->
  <rect x="20" y="80" width="40" height="20" rx="4" fill="#10b981" stroke="#059669" stroke-width="2"/>
  <text x="40" y="93" text-anchor="middle" fill="white" font-family="Arial, sans-serif" font-size="8" font-weight="bold">PING</text>
  
  <rect x="140" y="80" width="40" height="20" rx="4" fill="#10b981" stroke="#059669" stroke-width="2"/>
  <text x="160" y="93" text-anchor="middle" fill="white" font-family="Arial, sans-serif" font-size="8" font-weight="bold">DNS</text>
  
  <rect x="80" y="20" width="40" height="20" rx="4" fill="#10b981" stroke="#059669" stroke-width="2"/>
  <text x="100" y="33" text-anchor="middle" fill="white" font-family="Arial, sans-serif" font-size="8" font-weight="bold">TRACE</text>
  
  <rect x="80" y="160" width="40" height="20" rx="4" fill="#10b981" stroke="#059669" stroke-width="2"/>
  <text x="100" y="173" text-anchor="middle" fill="white" font-family="Arial, sans-serif" font-size="8" font-weight="bold">SSL</text>
  
  <!-- Connections -->
  <line x1="60" y1="90" x2="80" y2="100" stroke="#2563eb" stroke-width="2" stroke-linecap="round"/>
  <line x1="140" y1="90" x2="120" y2="100" stroke="#2563eb" stroke-width="2" stroke-linecap="round"/>
  <line x1="100" y1="40" x2="100" y2="80" stroke="#2563eb" stroke-width="2" stroke-linecap="round"/>
  <line x1="100" y1="120" x2="100" y2="160" stroke="#2563eb" stroke-width="2" stroke-linecap="round"/>
  
  <!-- Plugin indicators -->
  <circle cx="30" cy="30" r="3" fill="#fbbf24"/>
  <circle cx="170" cy="30" r="3" fill="#fbbf24"/>
  <circle cx="30" cy="170" r="3" fill="#fbbf24"/>
  <circle cx="170" cy="170" r="3" fill="#fbbf24"/>
  
  <!-- Labels -->
  <text x="30" y="25" text-anchor="middle" fill="#fbbf24" font-family="Arial, sans-serif" font-size="8">+</text>
  <text x="170" y="25" text-anchor="middle" fill="#fbbf24" font-family="Arial, sans-serif" font-size="8">+</text>
  <text x="30" y="185" text-anchor="middle" fill="#fbbf24" font-family="Arial, sans-serif" font-size="8">+</text>
  <text x="170" y="185" text-anchor="middle" fill="#fbbf24" font-family="Arial, sans-serif" font-size="8">+</text>
</svg>
